<?xml version="1.0" encoding="utf-8"?>
<!-- Generator: Adobe Illustrator 25.3.1, SVG Export Plug-In . SVG Version: 6.00 Build 0)  -->
<svg version="1.1" id="Camada_1" xmlns="http://www.w3.org/2000/svg" xmlns:xlink="http://www.w3.org/1999/xlink" x="0px" y="0px"
	 viewBox="0 0 81.8 73.3" style="enable-background:new 0 0 81.8 73.3;" xml:space="preserve">
<style type="text/css">
	.st0{fill:#65AE1F;}
</style>
<path d="M57.7,5.9c5.4,0,9.8,4.4,9.8,9.8V58c0,5.4-4.4,9.8-9.8,9.8H15.4c-5.4,0-9.8-4.4-9.8-9.8V15.7c0-5.4,4.4-9.8,9.8-9.8H57.7
	 M57.7,0.9H15.4C7.2,0.9,0.6,7.5,0.6,15.7V58c0,8.1,6.6,14.8,14.8,14.8h42.3c8.1,0,14.8-6.6,14.8-14.8V15.7
	C72.4,7.5,65.8,0.9,57.7,0.9L57.7,0.9z"/>
</svg>
