<?xml version="1.0" encoding="utf-8"?>
<!-- Generator: Adobe Illustrator 25.3.1, SVG Export Plug-In . SVG Version: 6.00 Build 0)  -->
<svg version="1.1" id="Camada_1" xmlns="http://www.w3.org/2000/svg" xmlns:xlink="http://www.w3.org/1999/xlink" x="0px" y="0px"
	 viewBox="0 0 81.8 73.3" style="enable-background:new 0 0 81.8 73.3;" xml:space="preserve">
<style type="text/css">
	.st0{fill:#65AE1F;}
</style>
<path class="st0" d="M11.8,29.1L35,60c0.8,1,2.3,1,3.1,0L80.6,6.4c0.7-0.8-0.4-1.9-1.3-1.2L33.4,42L13.9,26.9
	C12.5,25.8,10.7,27.6,11.8,29.1z"/>
<path d="M67.5,57.9c0,5.4-4.4,9.9-9.9,9.9H15.5c-5.4,0-9.9-4.4-9.9-9.9V15.8c0-5.4,4.4-9.9,9.9-9.9h42.1c3.9,0,7.3,2.3,8.9,5.6
	l4-3.2c-2.6-4.5-7.4-7.5-12.9-7.5H15.5C7.3,0.9,0.6,7.6,0.6,15.8v42.1c0,8.2,6.7,14.9,14.9,14.9h42.1c8.2,0,14.9-6.7,14.9-14.9V21.5
	l-5,6.3V57.9z"/>
</svg>
